<svg aria-hidden="true" style="position: absolute; width: 0; height: 0; overflow: hidden;" version="1.1" xmlns="http://www.w3.org/2000/svg" xmlns:xlink="http://www.w3.org/1999/xlink">
<defs>
<symbol id="icon-check" viewBox="0 0 28 28">
<path d="M26.109 8.844c0 0.391-0.156 0.781-0.438 1.062l-13.438 13.438c-0.281 0.281-0.672 0.438-1.062 0.438s-0.781-0.156-1.062-0.438l-7.781-7.781c-0.281-0.281-0.438-0.672-0.438-1.062s0.156-0.781 0.438-1.062l2.125-2.125c0.281-0.281 0.672-0.438 1.062-0.438s0.781 0.156 1.062 0.438l4.594 4.609 10.25-10.266c0.281-0.281 0.672-0.438 1.062-0.438s0.781 0.156 1.062 0.438l2.125 2.125c0.281 0.281 0.438 0.672 0.438 1.062z"></path>
</symbol>
<symbol id="icon-close" viewBox="0 0 22 28">
<path d="M20.281 20.656c0 0.391-0.156 0.781-0.438 1.062l-2.125 2.125c-0.281 0.281-0.672 0.438-1.062 0.438s-0.781-0.156-1.062-0.438l-4.594-4.594-4.594 4.594c-0.281 0.281-0.672 0.438-1.062 0.438s-0.781-0.156-1.062-0.438l-2.125-2.125c-0.281-0.281-0.438-0.672-0.438-1.062s0.156-0.781 0.438-1.062l4.594-4.594-4.594-4.594c-0.281-0.281-0.438-0.672-0.438-1.062s0.156-0.781 0.438-1.062l2.125-2.125c0.281-0.281 0.672-0.438 1.062-0.438s0.781 0.156 1.062 0.438l4.594 4.594 4.594-4.594c0.281-0.281 0.672-0.438 1.062-0.438s0.781 0.156 1.062 0.438l2.125 2.125c0.281 0.281 0.438 0.672 0.438 1.062s-0.156 0.781-0.438 1.062l-4.594 4.594 4.594 4.594c0.281 0.281 0.438 0.672 0.438 1.062z"></path>
</symbol>
<symbol id="icon-twitter" viewBox="0 0 26 28">
<path d="M25.312 6.375c-0.688 1-1.547 1.891-2.531 2.609 0.016 0.219 0.016 0.438 0.016 0.656 0 6.672-5.078 14.359-14.359 14.359-2.859 0-5.516-0.828-7.75-2.266 0.406 0.047 0.797 0.063 1.219 0.063 2.359 0 4.531-0.797 6.266-2.156-2.219-0.047-4.078-1.5-4.719-3.5 0.313 0.047 0.625 0.078 0.953 0.078 0.453 0 0.906-0.063 1.328-0.172-2.312-0.469-4.047-2.5-4.047-4.953v-0.063c0.672 0.375 1.453 0.609 2.281 0.641-1.359-0.906-2.25-2.453-2.25-4.203 0-0.938 0.25-1.797 0.688-2.547 2.484 3.062 6.219 5.063 10.406 5.281-0.078-0.375-0.125-0.766-0.125-1.156 0-2.781 2.25-5.047 5.047-5.047 1.453 0 2.766 0.609 3.687 1.594 1.141-0.219 2.234-0.641 3.203-1.219-0.375 1.172-1.172 2.156-2.219 2.781 1.016-0.109 2-0.391 2.906-0.781z"></path>
</symbol>
<symbol id="icon-facebook" viewBox="0 0 16 28">
<path d="M14.984 0.187v4.125h-2.453c-1.922 0-2.281 0.922-2.281 2.25v2.953h4.578l-0.609 4.625h-3.969v11.859h-4.781v-11.859h-3.984v-4.625h3.984v-3.406c0-3.953 2.422-6.109 5.953-6.109 1.687 0 3.141 0.125 3.563 0.187z"></path>
</symbol>
<symbol id="icon-github" viewBox="0 0 24 28">
<path d="M12 2c6.625 0 12 5.375 12 12 0 5.297-3.437 9.797-8.203 11.391-0.609 0.109-0.828-0.266-0.828-0.578 0-0.391 0.016-1.687 0.016-3.297 0-1.125-0.375-1.844-0.812-2.219 2.672-0.297 5.484-1.313 5.484-5.922 0-1.313-0.469-2.375-1.234-3.219 0.125-0.313 0.531-1.531-0.125-3.187-1-0.313-3.297 1.234-3.297 1.234-0.953-0.266-1.984-0.406-3-0.406s-2.047 0.141-3 0.406c0 0-2.297-1.547-3.297-1.234-0.656 1.656-0.25 2.875-0.125 3.187-0.766 0.844-1.234 1.906-1.234 3.219 0 4.594 2.797 5.625 5.469 5.922-0.344 0.313-0.656 0.844-0.766 1.609-0.688 0.313-2.438 0.844-3.484-1-0.656-1.141-1.844-1.234-1.844-1.234-1.172-0.016-0.078 0.734-0.078 0.734 0.781 0.359 1.328 1.75 1.328 1.75 0.703 2.141 4.047 1.422 4.047 1.422 0 1 0.016 1.937 0.016 2.234 0 0.313-0.219 0.688-0.828 0.578-4.766-1.594-8.203-6.094-8.203-11.391 0-6.625 5.375-12 12-12zM4.547 19.234c0.031-0.063-0.016-0.141-0.109-0.187-0.094-0.031-0.172-0.016-0.203 0.031-0.031 0.063 0.016 0.141 0.109 0.187 0.078 0.047 0.172 0.031 0.203-0.031zM5.031 19.766c0.063-0.047 0.047-0.156-0.031-0.25-0.078-0.078-0.187-0.109-0.25-0.047-0.063 0.047-0.047 0.156 0.031 0.25 0.078 0.078 0.187 0.109 0.25 0.047zM5.5 20.469c0.078-0.063 0.078-0.187 0-0.297-0.063-0.109-0.187-0.156-0.266-0.094-0.078 0.047-0.078 0.172 0 0.281s0.203 0.156 0.266 0.109zM6.156 21.125c0.063-0.063 0.031-0.203-0.063-0.297-0.109-0.109-0.25-0.125-0.313-0.047-0.078 0.063-0.047 0.203 0.063 0.297 0.109 0.109 0.25 0.125 0.313 0.047zM7.047 21.516c0.031-0.094-0.063-0.203-0.203-0.25-0.125-0.031-0.266 0.016-0.297 0.109s0.063 0.203 0.203 0.234c0.125 0.047 0.266 0 0.297-0.094zM8.031 21.594c0-0.109-0.125-0.187-0.266-0.172-0.141 0-0.25 0.078-0.25 0.172 0 0.109 0.109 0.187 0.266 0.172 0.141 0 0.25-0.078 0.25-0.172zM8.937 21.438c-0.016-0.094-0.141-0.156-0.281-0.141-0.141 0.031-0.234 0.125-0.219 0.234 0.016 0.094 0.141 0.156 0.281 0.125s0.234-0.125 0.219-0.219z"></path>
</symbol>
<symbol id="icon-tasks" viewBox="0 0 28 28">
<path d="M16 22h10v-2h-10v2zM10 14h16v-2h-16v2zM20 6h6v-2h-6v2zM28 19v4c0 0.547-0.453 1-1 1h-26c-0.547 0-1-0.453-1-1v-4c0-0.547 0.453-1 1-1h26c0.547 0 1 0.453 1 1zM28 11v4c0 0.547-0.453 1-1 1h-26c-0.547 0-1-0.453-1-1v-4c0-0.547 0.453-1 1-1h26c0.547 0 1 0.453 1 1zM28 3v4c0 0.547-0.453 1-1 1h-26c-0.547 0-1-0.453-1-1v-4c0-0.547 0.453-1 1-1h26c0.547 0 1 0.453 1 1z"></path>
</symbol>
<symbol id="icon-linkedin" viewBox="0 0 24 28">
<path d="M5.453 9.766v15.484h-5.156v-15.484h5.156zM5.781 4.984c0.016 1.484-1.109 2.672-2.906 2.672v0h-0.031c-1.734 0-2.844-1.188-2.844-2.672 0-1.516 1.156-2.672 2.906-2.672 1.766 0 2.859 1.156 2.875 2.672zM24 16.375v8.875h-5.141v-8.281c0-2.078-0.75-3.5-2.609-3.5-1.422 0-2.266 0.953-2.641 1.875-0.125 0.344-0.172 0.797-0.172 1.266v8.641h-5.141c0.063-14.031 0-15.484 0-15.484h5.141v2.25h-0.031c0.672-1.062 1.891-2.609 4.672-2.609 3.391 0 5.922 2.219 5.922 6.969z"></path>
</symbol>
<symbol id="icon-youtube-play" viewBox="0 0 28 28">
<path d="M11.109 17.625l7.562-3.906-7.562-3.953v7.859zM14 4.156c5.891 0 9.797 0.281 9.797 0.281 0.547 0.063 1.75 0.063 2.812 1.188 0 0 0.859 0.844 1.109 2.781 0.297 2.266 0.281 4.531 0.281 4.531v2.125s0.016 2.266-0.281 4.531c-0.25 1.922-1.109 2.781-1.109 2.781-1.062 1.109-2.266 1.109-2.812 1.172 0 0-3.906 0.297-9.797 0.297v0c-7.281-0.063-9.516-0.281-9.516-0.281-0.625-0.109-2.031-0.078-3.094-1.188 0 0-0.859-0.859-1.109-2.781-0.297-2.266-0.281-4.531-0.281-4.531v-2.125s-0.016-2.266 0.281-4.531c0.25-1.937 1.109-2.781 1.109-2.781 1.062-1.125 2.266-1.125 2.812-1.188 0 0 3.906-0.281 9.797-0.281v0z"></path>
</symbol>
<symbol id="icon-instagram" viewBox="0 0 24 28">
<path d="M16 14c0-2.203-1.797-4-4-4s-4 1.797-4 4 1.797 4 4 4 4-1.797 4-4zM18.156 14c0 3.406-2.75 6.156-6.156 6.156s-6.156-2.75-6.156-6.156 2.75-6.156 6.156-6.156 6.156 2.75 6.156 6.156zM19.844 7.594c0 0.797-0.641 1.437-1.437 1.437s-1.437-0.641-1.437-1.437 0.641-1.437 1.437-1.437 1.437 0.641 1.437 1.437zM12 4.156c-1.75 0-5.5-0.141-7.078 0.484-0.547 0.219-0.953 0.484-1.375 0.906s-0.688 0.828-0.906 1.375c-0.625 1.578-0.484 5.328-0.484 7.078s-0.141 5.5 0.484 7.078c0.219 0.547 0.484 0.953 0.906 1.375s0.828 0.688 1.375 0.906c1.578 0.625 5.328 0.484 7.078 0.484s5.5 0.141 7.078-0.484c0.547-0.219 0.953-0.484 1.375-0.906s0.688-0.828 0.906-1.375c0.625-1.578 0.484-5.328 0.484-7.078s0.141-5.5-0.484-7.078c-0.219-0.547-0.484-0.953-0.906-1.375s-0.828-0.688-1.375-0.906c-1.578-0.625-5.328-0.484-7.078-0.484zM24 14c0 1.656 0.016 3.297-0.078 4.953-0.094 1.922-0.531 3.625-1.937 5.031s-3.109 1.844-5.031 1.937c-1.656 0.094-3.297 0.078-4.953 0.078s-3.297 0.016-4.953-0.078c-1.922-0.094-3.625-0.531-5.031-1.937s-1.844-3.109-1.937-5.031c-0.094-1.656-0.078-3.297-0.078-4.953s-0.016-3.297 0.078-4.953c0.094-1.922 0.531-3.625 1.937-5.031s3.109-1.844 5.031-1.937c1.656-0.094 3.297-0.078 4.953-0.078s3.297-0.016 4.953 0.078c1.922 0.094 3.625 0.531 5.031 1.937s1.844 3.109 1.937 5.031c0.094 1.656 0.078 3.297 0.078 4.953z"></path>
</symbol>
<symbol id="icon-apple" viewBox="0 0 22 28">
<path d="M21.766 18.984c-0.391 1.234-1.016 2.547-1.922 3.906-1.344 2.047-2.688 3.063-4.016 3.063-0.531 0-1.25-0.172-2.188-0.5-0.922-0.344-1.719-0.5-2.359-0.5-0.625 0-1.375 0.172-2.219 0.516-0.859 0.359-1.547 0.531-2.063 0.531-1.609 0-3.156-1.359-4.703-4.047-1.516-2.688-2.297-5.297-2.297-7.859 0-2.391 0.594-4.328 1.766-5.844 1.172-1.5 2.641-2.25 4.438-2.25 0.766 0 1.672 0.156 2.766 0.469 1.078 0.313 1.797 0.469 2.156 0.469 0.453 0 1.203-0.172 2.234-0.531 1.031-0.344 1.937-0.531 2.703-0.531 1.25 0 2.359 0.344 3.328 1.016 0.547 0.375 1.094 0.906 1.625 1.563-0.812 0.688-1.406 1.297-1.781 1.844-0.672 0.969-1.016 2.047-1.016 3.234 0 1.281 0.359 2.453 1.078 3.484s1.547 1.687 2.469 1.969zM15.891 0.656c0 0.641-0.156 1.359-0.453 2.125-0.313 0.781-0.797 1.5-1.453 2.156-0.562 0.562-1.125 0.938-1.687 1.125-0.359 0.109-0.891 0.203-1.625 0.266 0.031-1.547 0.438-2.891 1.219-4.016s2.094-1.891 3.906-2.312c0.031 0.141 0.063 0.25 0.078 0.344 0 0.109 0.016 0.203 0.016 0.313z"></path>
</symbol>
<symbol id="icon-windows" viewBox="0 0 26 28">
<path d="M10.656 15.719v10.172l-10.656-1.469v-8.703h10.656zM10.656 4.109v10.297h-10.656v-8.828zM26 15.719v12.281l-14.172-1.953v-10.328h14.172zM26 2v12.406h-14.172v-10.453z"></path>
</symbol>
<symbol id="icon-android" viewBox="0 0 22 28">
<path d="M7.703 7.547c0.344 0 0.609-0.281 0.609-0.609s-0.266-0.609-0.609-0.609c-0.328 0-0.594 0.281-0.594 0.609s0.266 0.609 0.594 0.609zM14.297 7.547c0.328 0 0.594-0.281 0.594-0.609s-0.266-0.609-0.594-0.609c-0.344 0-0.609 0.281-0.609 0.609s0.266 0.609 0.609 0.609zM1.609 10.422c0.875 0 1.594 0.719 1.594 1.594v6.719c0 0.891-0.703 1.609-1.594 1.609s-1.609-0.719-1.609-1.609v-6.719c0-0.875 0.719-1.594 1.609-1.594zM18.172 10.719v10.406c0 0.953-0.766 1.719-1.703 1.719h-1.172v3.547c0 0.891-0.719 1.609-1.609 1.609s-1.609-0.719-1.609-1.609v-3.547h-2.156v3.547c0 0.891-0.719 1.609-1.609 1.609-0.875 0-1.594-0.719-1.594-1.609l-0.016-3.547h-1.156c-0.953 0-1.719-0.766-1.719-1.719v-10.406h14.344zM14.547 4.391c2.188 1.125 3.672 3.281 3.672 5.766h-14.453c0-2.484 1.484-4.641 3.687-5.766l-1.109-2.047c-0.063-0.109-0.031-0.25 0.078-0.313 0.109-0.047 0.25-0.016 0.313 0.094l1.125 2.063c0.953-0.422 2.016-0.656 3.141-0.656s2.188 0.234 3.141 0.656l1.125-2.063c0.063-0.109 0.203-0.141 0.313-0.094 0.109 0.063 0.141 0.203 0.078 0.313zM22 12.016v6.719c0 0.891-0.719 1.609-1.609 1.609-0.875 0-1.594-0.719-1.594-1.609v-6.719c0-0.891 0.719-1.594 1.594-1.594 0.891 0 1.609 0.703 1.609 1.594z"></path>
</symbol>
<symbol id="icon-reddit" viewBox="0 0 28 28">
<path d="M17.109 18.234c0.141 0.141 0.141 0.359 0 0.484-0.891 0.891-2.609 0.969-3.109 0.969s-2.219-0.078-3.109-0.969c-0.141-0.125-0.141-0.344 0-0.484 0.125-0.125 0.344-0.125 0.469 0 0.562 0.578 1.781 0.766 2.641 0.766s2.063-0.187 2.641-0.766c0.125-0.125 0.344-0.125 0.469 0zM12.313 15.406c0 0.766-0.625 1.391-1.391 1.391-0.781 0-1.406-0.625-1.406-1.391 0-0.781 0.625-1.406 1.406-1.406 0.766 0 1.391 0.625 1.391 1.406zM18.484 15.406c0 0.766-0.625 1.391-1.406 1.391-0.766 0-1.391-0.625-1.391-1.391 0-0.781 0.625-1.406 1.391-1.406 0.781 0 1.406 0.625 1.406 1.406zM22.406 13.531c0-1.031-0.844-1.859-1.875-1.859-0.531 0-1 0.219-1.344 0.562-1.266-0.875-2.969-1.437-4.859-1.5l0.984-4.422 3.125 0.703c0 0.766 0.625 1.391 1.391 1.391 0.781 0 1.406-0.641 1.406-1.406s-0.625-1.406-1.406-1.406c-0.547 0-1.016 0.328-1.25 0.781l-3.453-0.766c-0.172-0.047-0.344 0.078-0.391 0.25l-1.078 4.875c-1.875 0.078-3.563 0.641-4.828 1.516-0.344-0.359-0.828-0.578-1.359-0.578-1.031 0-1.875 0.828-1.875 1.859 0 0.75 0.438 1.375 1.062 1.687-0.063 0.281-0.094 0.578-0.094 0.875 0 2.969 3.344 5.375 7.453 5.375 4.125 0 7.469-2.406 7.469-5.375 0-0.297-0.031-0.609-0.109-0.891 0.609-0.313 1.031-0.938 1.031-1.672zM28 14c0 7.734-6.266 14-14 14s-14-6.266-14-14 6.266-14 14-14 14 6.266 14 14z"></path>
</symbol>
<symbol id="icon-server" viewBox="0 0 28 28">
<path d="M2 22h16v-2h-16v2zM2 14h16v-2h-16v2zM26.5 21c0-0.828-0.672-1.5-1.5-1.5s-1.5 0.672-1.5 1.5 0.672 1.5 1.5 1.5 1.5-0.672 1.5-1.5zM2 6h16v-2h-16v2zM26.5 13c0-0.828-0.672-1.5-1.5-1.5s-1.5 0.672-1.5 1.5 0.672 1.5 1.5 1.5 1.5-0.672 1.5-1.5zM26.5 5c0-0.828-0.672-1.5-1.5-1.5s-1.5 0.672-1.5 1.5 0.672 1.5 1.5 1.5 1.5-0.672 1.5-1.5zM28 18v6h-28v-6h28zM28 10v6h-28v-6h28zM28 2v6h-28v-6h28z"></path>
</symbol>
<symbol id="icon-drivers-license" viewBox="0 0 32 28">
<path d="M14 18.937c0-2.063-0.5-4.438-2.562-4.438-0.625 0.625-1.484 1-2.438 1s-1.813-0.375-2.438-1c-2.063 0-2.562 2.375-2.562 4.438 0 1.141 0.75 2.063 1.672 2.063h6.656c0.922 0 1.672-0.922 1.672-2.063zM12 12c0-1.656-1.344-3-3-3s-3 1.344-3 3 1.344 3 3 3 3-1.344 3-3zM28 19.5v-1c0-0.281-0.219-0.5-0.5-0.5h-11c-0.281 0-0.5 0.219-0.5 0.5v1c0 0.281 0.219 0.5 0.5 0.5h11c0.281 0 0.5-0.219 0.5-0.5zM22 15.5v-1c0-0.281-0.219-0.5-0.5-0.5h-5c-0.281 0-0.5 0.219-0.5 0.5v1c0 0.281 0.219 0.5 0.5 0.5h5c0.281 0 0.5-0.219 0.5-0.5zM28 15.5v-1c0-0.281-0.219-0.5-0.5-0.5h-3c-0.281 0-0.5 0.219-0.5 0.5v1c0 0.281 0.219 0.5 0.5 0.5h3c0.281 0 0.5-0.219 0.5-0.5zM28 11.5v-1c0-0.281-0.219-0.5-0.5-0.5h-11c-0.281 0-0.5 0.219-0.5 0.5v1c0 0.281 0.219 0.5 0.5 0.5h11c0.281 0 0.5-0.219 0.5-0.5zM2 6h28v-1.5c0-0.281-0.219-0.5-0.5-0.5h-27c-0.281 0-0.5 0.219-0.5 0.5v1.5zM32 4.5v19c0 1.375-1.125 2.5-2.5 2.5h-27c-1.375 0-2.5-1.125-2.5-2.5v-19c0-1.375 1.125-2.5 2.5-2.5h27c1.375 0 2.5 1.125 2.5 2.5z"></path>
</symbol>
<symbol id="icon-redux" viewBox="0 0 32 32">
<path fill="#764abc" style="fill: var(--color1, #764abc)" d="M22.177 22.005c1.159-0.1 2.057-1.12 1.999-2.339-0.061-1.219-1.060-2.197-2.277-2.197h-0.081c-1.257 0.041-2.237 1.099-2.197 2.359 0.040 0.639 0.301 1.159 0.659 1.537-1.397 2.717-3.495 4.715-6.672 6.393-2.137 1.117-4.395 1.539-6.592 1.239-1.837-0.259-3.275-1.080-4.155-2.397-1.317-1.999-1.437-4.155-0.34-6.312 0.801-1.559 1.999-2.697 2.799-3.257-0.2-0.519-0.44-1.397-0.56-2.056-5.915 4.236-5.313 10.028-3.516 12.765 1.339 1.997 4.076 3.275 7.072 3.275 0.799 0 1.639-0.059 2.457-0.259 5.195-0.999 9.129-4.115 11.387-8.709zM29.308 17.011c-3.095-3.636-7.651-5.633-12.845-5.633h-0.68c-0.337-0.739-1.116-1.199-1.996-1.199h-0.060c-1.257 0-2.237 1.080-2.196 2.337 0.040 1.197 1.059 2.197 2.277 2.197h0.099c0.9-0.040 1.679-0.6 1.997-1.399h0.74c3.079 0 5.993 0.899 8.651 2.656 2.036 1.339 3.496 3.096 4.315 5.195 0.717 1.717 0.679 3.396-0.060 4.796-1.139 2.196-3.057 3.356-5.593 3.356-1.599 0-3.156-0.5-3.956-0.859-0.479 0.397-1.279 1.057-1.859 1.457 1.757 0.797 3.536 1.257 5.253 1.257 3.896 0 6.791-2.196 7.891-4.315 1.197-2.397 1.099-6.432-1.959-9.888zM8.653 22.723c0.039 1.199 1.057 2.197 2.277 2.197h0.080c1.279-0.040 2.257-1.097 2.197-2.357 0-1.199-1.039-2.196-2.257-2.196h-0.081c-0.080 0-0.199 0-0.3 0.039-1.657-2.797-2.357-5.795-2.096-9.028 0.159-2.437 0.959-4.556 2.396-6.313 1.199-1.499 3.456-2.239 4.995-2.277 4.315-0.081 6.113 5.295 6.252 7.432l1.997 0.599c-0.46-6.552-4.533-9.989-8.429-9.989-3.656 0-7.031 2.657-8.391 6.553-1.857 5.195-0.639 10.188 1.639 14.184-0.199 0.26-0.319 0.719-0.279 1.157z"></path>
</symbol>
<symbol id="icon-gmail" viewBox="0 0 32 32">
<path fill="#d14836" style="fill: var(--color2, #d14836)" d="M32 6v20c0 1.133-0.867 2-2 2h-2v-18.151l-12 8.617-12-8.617v18.151h-2c-1.135 0-2-0.867-2-2v-20c0-0.567 0.216-1.067 0.575-1.424 0.359-0.363 0.86-0.576 1.425-0.576h0.667l13.333 9.667 13.333-9.667h0.667c0.567 0 1.067 0.216 1.425 0.576 0.36 0.357 0.575 0.857 0.575 1.424z"></path>
</symbol>
<symbol id="icon-react" viewBox="0 0 32 32">
<path fill="#61dafb" style="fill: var(--color3, #61dafb)" d="M16 13.148c-1.575 0-2.852 1.277-2.852 2.852s1.277 2.852 2.852 2.852v0c1.575 0 2.852-1.277 2.852-2.852s-1.277-2.852-2.852-2.852v0zM8.011 21.673l-0.629-0.16c-4.691-1.185-7.381-3.197-7.381-5.519s2.691-4.333 7.381-5.519l0.629-0.159 0.177 0.624c0.545 1.86 1.163 3.443 1.899 4.957l-0.082-0.186 0.135 0.284-0.135 0.284c-0.656 1.329-1.275 2.912-1.761 4.551l-0.056 0.22zM7.089 11.933c-3.565 1.001-5.753 2.533-5.753 4.061 0 1.527 2.188 3.059 5.753 4.061 0.512-1.62 1.046-2.965 1.662-4.263l-0.086 0.202c-0.531-1.098-1.066-2.443-1.511-3.828l-0.065-0.234zM23.989 21.673l-0.177-0.625c-0.544-1.859-1.162-3.441-1.9-4.954l0.081 0.184-0.135-0.284 0.135-0.284c0.656-1.329 1.275-2.911 1.762-4.55l0.056-0.221 0.177-0.624 0.631 0.159c4.689 1.185 7.38 3.197 7.38 5.52s-2.691 4.333-7.38 5.519zM23.335 15.995c0.64 1.385 1.169 2.747 1.576 4.061 3.567-1.003 5.753-2.535 5.753-4.061 0-1.528-2.188-3.059-5.753-4.061-0.511 1.619-1.045 2.963-1.662 4.262l0.086-0.2zM7.080 11.927l-0.177-0.623c-1.319-4.648-0.919-7.979 1.097-9.141 1.977-1.141 5.152 0.207 8.479 3.621l0.453 0.465-0.453 0.465c-1.146 1.19-2.207 2.482-3.162 3.853l-0.068 0.103-0.18 0.257-0.313 0.027c-1.875 0.151-3.596 0.439-5.264 0.86l0.218-0.047zM9.608 3.087c-0.357 0-0.673 0.077-0.94 0.231-1.325 0.764-1.56 3.42-0.647 7.004 1.21-0.285 2.681-0.521 4.18-0.658l0.131-0.010c0.894-1.264 1.792-2.37 2.756-3.414l-0.020 0.022c-2.080-2.025-4.049-3.175-5.46-3.175zM22.393 30.236c-0.001 0-0.001 0 0 0-1.9 0-4.34-1.431-6.872-4.031l-0.453-0.465 0.453-0.465c1.146-1.19 2.206-2.482 3.16-3.854l0.068-0.103 0.18-0.257 0.312-0.027c1.875-0.15 3.597-0.438 5.267-0.858l-0.218 0.046 0.629-0.159 0.179 0.624c1.316 4.645 0.917 7.977-1.099 9.139-0.449 0.259-0.988 0.411-1.562 0.411-0.016 0-0.031-0-0.047-0l0.002 0zM16.932 25.728c2.080 2.025 4.049 3.175 5.46 3.175h0.001c0.356 0 0.673-0.077 0.939-0.231 1.325-0.764 1.561-3.421 0.647-7.005-1.212 0.286-2.682 0.522-4.182 0.658l-0.13 0.010c-0.893 1.265-1.791 2.371-2.755 3.416l0.020-0.022zM24.92 11.927l-0.629-0.159c-1.453-0.376-3.175-0.664-4.939-0.806l-0.111-0.007-0.312-0.027-0.18-0.257c-1.021-1.474-2.082-2.766-3.237-3.966l0.009 0.010-0.453-0.465 0.453-0.465c3.325-3.413 6.499-4.761 8.479-3.621 2.016 1.163 2.416 4.493 1.099 9.14zM19.667 9.653c1.523 0.139 2.969 0.364 4.312 0.668 0.915-3.584 0.679-6.24-0.647-7.004-1.317-0.761-3.793 0.405-6.4 2.944 0.943 1.022 1.841 2.128 2.666 3.289l0.069 0.103zM9.608 30.236c-0.014 0-0.030 0-0.046 0-0.574 0-1.113-0.152-1.577-0.419l0.015 0.008c-2.016-1.161-2.416-4.492-1.097-9.139l0.176-0.624 0.629 0.159c1.54 0.388 3.239 0.661 5.047 0.812l0.313 0.027 0.179 0.257c1.022 1.475 2.083 2.767 3.239 3.967l-0.010-0.010 0.453 0.465-0.453 0.465c-2.531 2.6-4.971 4.031-6.868 4.031zM8.021 21.667c-0.915 3.584-0.679 6.241 0.647 7.005 1.316 0.751 3.791-0.407 6.4-2.944-0.943-1.022-1.841-2.129-2.667-3.29l-0.069-0.103c-1.629-0.146-3.099-0.382-4.534-0.711l0.224 0.043zM16 22.504c-1.097 0-2.225-0.048-3.355-0.141l-0.313-0.027-0.18-0.257c-0.544-0.768-1.139-1.691-1.697-2.639l-0.103-0.19c-0.452-0.758-0.971-1.732-1.45-2.728l-0.105-0.243-0.133-0.284 0.133-0.284c0.584-1.239 1.102-2.212 1.658-3.161l-0.103 0.191c0.552-0.955 1.159-1.907 1.8-2.829l0.18-0.257 0.313-0.027c1.005-0.090 2.174-0.142 3.355-0.142s2.35 0.052 3.505 0.153l-0.15-0.011 0.312 0.027 0.179 0.257c1.177 1.666 2.294 3.567 3.252 5.56l0.104 0.24 0.135 0.284-0.135 0.284c-1.058 2.232-2.176 4.133-3.439 5.925l0.083-0.125-0.179 0.257-0.312 0.027c-1.129 0.093-2.259 0.141-3.356 0.141zM13.071 21.059c1.973 0.148 3.885 0.148 5.86 0 1.004-1.445 1.978-3.104 2.827-4.836l0.101-0.228c-0.947-1.958-1.922-3.617-3.012-5.19l0.083 0.126c-0.877-0.071-1.898-0.111-2.929-0.111s-2.052 0.040-3.063 0.119l0.134-0.008c-1.008 1.447-1.983 3.106-2.83 4.84l-0.099 0.224c0.951 1.96 1.926 3.619 3.014 5.193l-0.085-0.13z"></path>
</symbol>
<symbol id="icon-html5" viewBox="0 0 32 32">
<path fill="#e34f26" style="fill: var(--color4, #e34f26)" d="M2 0h28l-2.547 28.751-11.484 3.249-11.419-3.251zM11.375 13l-0.309-3.624 13.412 0.004 0.307-3.496-17.568-0.004 0.931 10.68h12.168l-0.435 4.568-3.88 1.072-3.94-1.080-0.251-2.813h-3.479l0.44 5.561 7.229 1.933 7.172-1.924 0.992-10.876z"></path>
</symbol>
<symbol id="icon-git" viewBox="0 0 32 32">
<path fill="#f05032" style="fill: var(--color5, #f05032)" d="M31.395 14.573l-13.972-13.971c-0.805-0.804-2.109-0.804-2.917 0l-2.895 2.9 3.68 3.68c0.86-0.287 1.839-0.093 2.519 0.588 0.688 0.687 0.877 1.677 0.584 2.533l3.544 3.547c0.86-0.297 1.849-0.104 2.533 0.58 0.961 0.96 0.961 2.512 0 3.472-0.959 0.959-2.508 0.959-3.467 0-0.719-0.721-0.899-1.783-0.539-2.661l-3.319-3.301v8.7c0.235 0.115 0.456 0.271 0.651 0.464 0.951 0.961 0.951 2.511 0 3.467-0.959 0.961-2.519 0.961-3.479 0-0.959-0.959-0.959-2.505 0-3.464 0.243-0.24 0.516-0.421 0.807-0.541v-8.785c-0.289-0.121-0.565-0.296-0.8-0.535-0.727-0.727-0.901-1.789-0.528-2.679l-3.616-3.633-9.581 9.575c-0.8 0.807-0.8 2.112 0 2.919l13.973 13.969c0.805 0.805 2.109 0.805 2.915 0l13.907-13.907c0.807-0.804 0.807-2.109 0-2.916z"></path>
</symbol>
<symbol id="icon-java" viewBox="0 0 32 32">
<path fill="#007396" style="fill: var(--color6, #007396)" d="M11.801 24.747c0 0-1.223 0.712 0.871 0.952 2.536 0.291 3.832 0.249 6.625-0.281 0 0 0.736 0.461 1.761 0.861-6.265 2.684-14.177-0.157-9.257-1.532zM11.035 21.244c0 0-1.371 1.015 0.723 1.232 2.709 0.279 4.848 0.303 8.551-0.411 0 0 0.512 0.519 1.316 0.803-7.572 2.215-16.009 0.173-10.589-1.624zM17.488 15.3c1.544 1.777-0.405 3.377-0.405 3.377s3.919-2.024 2.119-4.557c-1.681-2.363-2.971-3.536 4.009-7.584 0-0.001-10.955 2.735-5.723 8.764zM25.773 27.339c0 0 0.905 0.745-0.996 1.321-3.616 1.096-15.051 1.425-18.225 0.044-1.141-0.497 1-1.187 1.672-1.331 0.703-0.152 1.104-0.124 1.104-0.124-1.271-0.895-8.208 1.756-3.524 2.516 12.773 2.071 23.283-0.933 19.969-2.427zM12.389 17.613c0 0-5.816 1.381-2.059 1.883 1.585 0.212 4.748 0.164 7.693-0.083 2.408-0.203 4.824-0.636 4.824-0.636s-0.849 0.363-1.464 0.783c-5.905 1.553-17.315 0.831-14.029-0.757 2.776-1.341 5.035-1.189 5.035-1.189zM22.821 23.445c6.004-3.12 3.228-6.119 1.291-5.713-0.473 0.099-0.687 0.184-0.687 0.184s0.176-0.276 0.513-0.396c3.833-1.348 6.781 3.975-1.237 6.083 0-0.001 0.093-0.083 0.12-0.157zM19.201 0c0 0 3.325 3.325-3.153 8.44-5.195 4.103-1.184 6.443-0.001 9.115-3.032-2.737-5.257-5.144-3.765-7.385 2.192-3.292 8.263-4.887 6.92-10.169zM12.979 31.899c5.763 0.369 14.612-0.204 14.821-2.931 0 0-0.403 1.033-4.763 1.855-4.917 0.925-10.985 0.817-14.583 0.224 0-0.001 0.737 0.609 4.524 0.852z"></path>
</symbol>
<symbol id="icon-rails" viewBox="0 0 32 32">
<path fill="#c00" style="fill: var(--color7, #c00)" d="M27.846 21.081v1.551h2.642c0.541 0 1.471-0.42 1.503-1.594v-0.6c0-1.003-0.776-1.594-1.503-1.594h-1.317v-0.72h2.61v-1.56h-2.505c-0.646 0-1.511 0.566-1.511 1.62v0.54c0 1.054 0.857 1.594 1.511 1.594 1.818 0.009-0.436 0 1.244 0v0.754zM13.689 20.704c0 0 1.414-0.129 1.414-2.066s-1.713-2.117-1.713-2.117h-3.087v6.111h1.551v-1.474l1.341 1.474h2.295zM13.091 19.452h-1.236v-1.397h1.244c0 0 0.347 0.137 0.347 0.694s-0.356 0.703-0.356 0.703zM18.933 16.564h-1.576c-1.123 0-1.503 1.080-1.503 1.594v4.474h1.576v-1.071h1.479v1.071h1.527v-4.474c0-1.303-1.115-1.594-1.503-1.594zM18.909 19.829h-1.487v-1.483c0 0 0-0.334 0.493-0.334h0.541c0.436 0 0.444 0.334 0.444 0.334v1.483zM21.156 16.564h1.64v6.069h-1.64zM25.099 21.064v-4.5h-1.632v6.069h3.838v-1.569zM0.566 22.632h6.384c0 0-1.22-5.906 2.82-8.297 0.881-0.454 3.685-2.151 8.275 1.449 0.145-0.129 0.283-0.231 0.283-0.231s-4.202-4.449-8.881-3.951c-2.351 0.223-5.244 2.494-6.941 5.494s-1.939 5.537-1.939 5.537zM0.566 22.632h6.384c0 0-1.22-5.906 2.82-8.297 0.881-0.454 3.685-2.151 8.275 1.449 0.145-0.129 0.283-0.231 0.283-0.231s-4.202-4.449-8.881-3.951c-2.351 0.223-5.244 2.494-6.941 5.494s-1.939 5.537-1.939 5.537zM0.566 22.632h6.384c0 0-1.22-5.906 2.82-8.297 0.881-0.454 3.685-2.151 8.275 1.449 0.145-0.129 0.283-0.231 0.283-0.231s-4.202-4.449-8.881-3.951c-2.36 0.223-5.253 2.494-6.949 5.494s-1.931 5.537-1.931 5.537zM13.867 12.081l0.032-0.574c-0.073-0.043-0.275-0.146-0.784-0.3l-0.032 0.566c0.267 0.094 0.525 0.197 0.784 0.309zM13.099 13.898l-0.032 0.54c0.267 0.009 0.533 0.043 0.8 0.103l0.032-0.531c-0.275-0.060-0.541-0.094-0.8-0.111zM10.109 11.224h0.081l-0.162-0.523c-0.251 0-0.509 0.017-0.776 0.051l0.154 0.506c0.234-0.026 0.469-0.034 0.703-0.034zM10.497 14.378l0.186 0.591c0.234-0.12 0.469-0.223 0.703-0.3l-0.178-0.566c-0.275 0.086-0.509 0.18-0.711 0.274zM6.828 12.124l-0.364-0.591c-0.202 0.111-0.412 0.231-0.63 0.369l0.372 0.6c0.21-0.137 0.412-0.266 0.622-0.377zM8.485 15.981l0.388 0.617c0.137-0.214 0.299-0.411 0.477-0.609l-0.364-0.583c-0.186 0.18-0.356 0.377-0.501 0.574zM7.313 18.741l0.655 0.549c0.032-0.334 0.089-0.669 0.17-1.003l-0.582-0.489c-0.105 0.317-0.178 0.634-0.242 0.943zM3.774 14.669l-0.574-0.531c-0.21 0.214-0.412 0.429-0.598 0.643l0.622 0.566c0.17-0.231 0.356-0.463 0.549-0.677zM1.333 18.501l-0.929-0.36c-0.153 0.369-0.323 0.797-0.404 1.029l0.929 0.36c0.105-0.291 0.275-0.711 0.404-1.029zM7.192 20.918c0.016 0.454 0.057 0.823 0.097 1.080l0.97 0.369c-0.073-0.334-0.145-0.711-0.194-1.114z"></path>
</symbol>
<symbol id="icon-npm" viewBox="0 0 32 32">
<path fill="#cb3837" style="fill: var(--color8, #cb3837)" d="M0 9.779v10.667h8.888v1.776h7.112v-1.776h16v-10.667zM8.888 18.664h-1.776v-5.333h-1.78v5.333h-3.552v-7.108h7.108zM14.221 18.664v1.781h-3.553v-8.889h7.112v7.109h-3.559zM30.223 18.664h-1.773v-5.333h-1.781v5.333h-1.78v-5.333h-1.773v5.333h-3.561v-7.108h10.669zM14.22 13.333h1.78v3.556h-1.78z"></path>
</symbol>
<symbol id="icon-laravel" viewBox="0 0 32 32">
<path fill="#ff2d20" style="fill: var(--color9, #ff2d20)" d="M31.525 7.24c0.012 0.043 0.019 0.087 0.019 0.132v6.867c0 0.18-0.097 0.347-0.252 0.435l-5.764 3.32v6.579c0 0.18-0.096 0.344-0.251 0.435l-12.036 6.927c-0.028 0.016-0.057 0.027-0.088 0.036-0.011 0.003-0.021 0.011-0.032 0.013-0.084 0.024-0.173 0.024-0.256 0-0.015-0.003-0.027-0.011-0.039-0.016-0.028-0.011-0.057-0.019-0.084-0.033l-12.031-6.927c-0.156-0.091-0.252-0.255-0.252-0.435v-20.607c0-0.044 0.007-0.088 0.019-0.131 0.004-0.016 0.013-0.028 0.019-0.043 0.008-0.027 0.019-0.053 0.031-0.077 0.005-0.017 0.020-0.029 0.031-0.044 0.016-0.021 0.028-0.041 0.044-0.060 0.016-0.013 0.033-0.024 0.049-0.036 0.019-0.016 0.036-0.032 0.055-0.045h0.001l6.017-3.463c0.153-0.089 0.345-0.089 0.5 0l6.019 3.463c0.020 0.013 0.036 0.028 0.055 0.044 0.016 0.012 0.033 0.024 0.049 0.036 0.017 0.019 0.028 0.039 0.044 0.060 0.011 0.015 0.027 0.028 0.033 0.044 0.015 0.025 0.023 0.051 0.032 0.077 0.004 0.015 0.015 0.028 0.017 0.043 0.013 0.041 0.019 0.085 0.019 0.131v12.869l5.013-2.885v-6.579c0-0.044 0.007-0.088 0.019-0.131 0.004-0.015 0.012-0.028 0.017-0.043 0.009-0.027 0.019-0.052 0.032-0.079 0.009-0.016 0.024-0.028 0.033-0.044 0.016-0.020 0.028-0.040 0.044-0.057 0.016-0.016 0.033-0.027 0.049-0.037 0.019-0.015 0.035-0.031 0.055-0.043h0.001l6.017-3.464c0.155-0.089 0.345-0.089 0.5 0l6.017 3.464c0.021 0.013 0.036 0.028 0.056 0.041 0.016 0.013 0.033 0.024 0.048 0.037 0.017 0.019 0.029 0.039 0.045 0.059 0.011 0.016 0.025 0.028 0.032 0.044 0.015 0.027 0.024 0.052 0.032 0.079 0.008 0.015 0.016 0.029 0.020 0.044zM30.539 13.949v-5.711l-5.013 2.885v5.711zM24.524 24.283v-5.716l-11.031 6.297v5.768zM1.46 4.832v19.451l11.031 6.349v-5.768l-5.768-3.264c-0.019-0.013-0.033-0.028-0.053-0.041-0.015-0.013-0.032-0.024-0.047-0.036l-0.001-0.003c-0.017-0.016-0.028-0.033-0.041-0.052-0.013-0.016-0.028-0.031-0.037-0.049h-0.003c-0.011-0.019-0.017-0.041-0.027-0.063-0.008-0.021-0.019-0.036-0.024-0.057-0.005-0.024-0.008-0.049-0.011-0.076-0.003-0.019-0.008-0.036-0.008-0.055v-13.449l-2.907-1.676zM6.975 1.080l-5.013 2.885 5.013 2.885 5.011-2.885zM9.583 19.087l2.909-1.675v-12.58l-5.016 2.887v12.58zM25.025 4.485l-5.013 2.885 5.013 2.884 5.012-2.885zM24.524 11.124l-5.015-2.885v5.711l5.015 2.885zM12.991 23.996l11.027-6.293-5.009-2.884-11.020 6.345z"></path>
</symbol>
<symbol id="icon-php" viewBox="0 0 32 32">
<path fill="#777bb4" style="fill: var(--color10, #777bb4)" d="M9.347 13.609h-1.259l-0.687 3.531h1.117c0.741 0 1.293-0.14 1.656-0.419 0.363-0.28 0.607-0.745 0.733-1.399 0.123-0.627 0.067-1.069-0.165-1.327-0.233-0.257-0.697-0.387-1.396-0.387zM16 7.584c-8.836 0-16 3.768-16 8.416s7.164 8.417 16 8.417 16-3.769 16-8.417-7.164-8.416-16-8.416zM11.653 17.519c-0.348 0.333-0.767 0.584-1.223 0.735-0.448 0.144-1.020 0.219-1.713 0.219h-1.575l-0.436 2.241h-1.837l1.64-8.435h3.533c1.063 0 1.837 0.279 2.325 0.837 0.488 0.557 0.635 1.336 0.44 2.336-0.082 0.425-0.223 0.803-0.416 1.148l0.010-0.019c-0.191 0.34-0.44 0.653-0.748 0.937zM17.019 18.472l0.724-3.732c0.084-0.424 0.052-0.715-0.091-0.868-0.143-0.155-0.448-0.232-0.916-0.232h-1.456l-0.939 4.833h-1.824l1.64-8.436h1.823l-0.436 2.243h1.624c1.023 0 1.727 0.179 2.115 0.535s0.504 0.933 0.351 1.732l-0.763 3.925zM27.148 15.452c-0.080 0.425-0.221 0.803-0.416 1.148l0.010-0.018c-0.191 0.34-0.44 0.653-0.748 0.937-0.338 0.323-0.746 0.574-1.2 0.728l-0.023 0.007c-0.448 0.144-1.020 0.219-1.715 0.219h-1.573l-0.436 2.243h-1.837l1.64-8.435h3.532c1.063 0 1.837 0.279 2.325 0.837 0.488 0.556 0.636 1.335 0.441 2.335zM23.688 13.609h-1.257l-0.688 3.531h1.117c0.743 0 1.295-0.14 1.656-0.419 0.363-0.28 0.607-0.745 0.735-1.399 0.123-0.627 0.065-1.069-0.167-1.327s-0.699-0.387-1.396-0.387z"></path>
</symbol>
<symbol id="icon-python" viewBox="0 0 32 32">
<path fill="#3776ab" style="fill: var(--color11, #3776ab)" d="M19.080 0.24l1.2 0.267 0.973 0.347 0.787 0.4 0.6 0.427 0.453 0.453 0.333 0.453 0.213 0.44 0.133 0.4 0.053 0.347 0.027 0.267-0.013 0.173v7.12l-0.067 0.84-0.173 0.733-0.28 0.613-0.347 0.507-0.4 0.413-0.44 0.333-0.467 0.253-0.467 0.187-0.44 0.133-0.4 0.093-0.347 0.053-0.28 0.027h-7.96l-0.92 0.067-0.787 0.187-0.667 0.293-0.547 0.36-0.44 0.427-0.36 0.467-0.267 0.48-0.2 0.493-0.133 0.467-0.093 0.427-0.053 0.36-0.027 0.28v4.080h-2.973l-0.28-0.040-0.373-0.093-0.427-0.16-0.467-0.24-0.48-0.347-0.48-0.48-0.467-0.613-0.427-0.787-0.373-0.973-0.28-1.173-0.187-1.4-0.067-1.64 0.080-1.627 0.213-1.387 0.32-1.16 0.427-0.947 0.48-0.76 0.533-0.587 0.56-0.44 0.56-0.32 0.533-0.213 0.48-0.133 0.427-0.067 0.32-0.013h0.213l0.080 0.013h10.88v-1.107h-7.787l-0.013-3.667-0.027-0.493 0.067-0.453 0.147-0.413 0.227-0.373 0.333-0.347 0.413-0.307 0.507-0.267 0.587-0.24 0.68-0.2 0.773-0.16 0.853-0.133 0.947-0.080 1.027-0.053 1.12-0.027 1.693 0.067zM10.68 2.88l-0.307 0.44-0.107 0.547 0.107 0.547 0.307 0.453 0.44 0.293 0.547 0.12 0.547-0.12 0.44-0.293 0.307-0.453 0.107-0.547-0.107-0.547-0.307-0.44-0.44-0.293-0.547-0.12-0.547 0.12zM28.133 8.147l0.373 0.080 0.427 0.16 0.467 0.24 0.48 0.36 0.48 0.467 0.467 0.627 0.427 0.787 0.373 0.973 0.28 1.173 0.187 1.387 0.067 1.64-0.080 1.64-0.213 1.387-0.32 1.147-0.427 0.947-0.48 0.76-0.533 0.6-0.56 0.44-0.56 0.32-0.533 0.213-0.48 0.12-0.427 0.067-0.32 0.027-0.213-0.013h-10.96v1.093h7.787l0.013 3.68 0.027 0.48-0.067 0.453-0.147 0.413-0.227 0.387-0.333 0.333-0.413 0.32-0.507 0.267-0.587 0.227-0.68 0.2-0.773 0.173-0.853 0.12-0.947 0.093-1.027 0.053-1.12 0.013-1.693-0.053-1.427-0.187-1.2-0.267-0.973-0.333-0.787-0.4-0.6-0.44-0.453-0.453-0.333-0.453-0.213-0.44-0.133-0.4-0.053-0.333-0.027-0.267 0.013-0.173v-7.12l0.067-0.853 0.173-0.72 0.28-0.613 0.347-0.507 0.4-0.427 0.44-0.32 0.467-0.267 0.467-0.187 0.44-0.133 0.4-0.080 0.347-0.053 0.28-0.027 0.173-0.013h7.787l0.92-0.067 0.787-0.187 0.667-0.28 0.547-0.373 0.44-0.427 0.36-0.467 0.267-0.48 0.2-0.48 0.133-0.467 0.093-0.427 0.053-0.373 0.027-0.28v-4.080h2.787l0.187 0.013zM19.507 27.147l-0.307 0.44-0.107 0.547 0.107 0.547 0.307 0.44 0.44 0.307 0.547 0.107 0.547-0.107 0.44-0.307 0.307-0.44 0.107-0.547-0.107-0.547-0.307-0.44-0.44-0.307-0.547-0.107-0.547 0.107z"></path>
</symbol>
<symbol id="icon-django" viewBox="0 0 32 32">
<path d="M14.861 0h5.232v24.22c-2.684 0.509-4.655 0.713-6.795 0.713-6.388 0-9.717-2.888-9.717-8.427 0-5.335 3.533-8.8 9.004-8.8 0.849 0 1.495 0.068 2.276 0.272zM14.861 12.191c-0.496-0.173-1.067-0.273-1.662-0.273-0.037 0-0.074 0-0.111 0.001l0.005-0c-2.651 0-4.179 1.631-4.179 4.485 0 2.787 1.461 4.315 4.145 4.315 0.577 0 1.053-0.033 1.8-0.136zM28.419 8.080v12.129c0 4.179-0.305 6.184-1.223 7.916-0.849 1.665-1.971 2.719-4.281 3.873l-4.859-2.311c2.311-1.087 3.432-2.039 4.145-3.5 0.748-1.495 0.985-3.228 0.985-7.78v-10.329zM23.187 0.028h5.232v5.368h-5.232z"></path>
</symbol>
<symbol id="icon-css3" viewBox="0 0 32 32">
<path fill="#1572b6" style="fill: var(--color12, #1572b6)" d="M2 0h28l-2.547 28.751-11.484 3.249-11.42-3.251zM24.787 5.884l-17.573-0.004 0.284 3.496 13.5 0.003-0.34 3.621h-8.853l0.32 3.431h8.243l-0.488 4.697-3.88 1.072-3.941-1.080-0.251-2.813h-3.48l0.387 5.14 7.287 2.271 7.164-2.040z"></path>
</symbol>
<symbol id="icon-phone" viewBox="0 0 32 32">
<path d="M22 20c-2 2-2 4-4 4s-4-2-6-4-4-4-4-6 2-2 4-4-4-8-6-8-6 6-6 6c0 4 4.109 12.109 8 16s12 8 16 8c0 0 6-4 6-6s-6-8-8-6z"></path>
</symbol>
<symbol id="icon-location" viewBox="0 0 32 32">
<path d="M16 0c-5.523 0-10 4.477-10 10 0 10 10 22 10 22s10-12 10-22c0-5.523-4.477-10-10-10zM16 16c-3.314 0-6-2.686-6-6s2.686-6 6-6 6 2.686 6 6-2.686 6-6 6z"></path>
</symbol>
<symbol id="icon-menu" viewBox="0 0 32 32">
<path d="M2 6h28v6h-28zM2 14h28v6h-28zM2 22h28v6h-28z"></path>
</symbol>
</defs>
</svg>
